<?xml version="1.0" encoding="utf-8"?>
<!-- Generator: Adobe Illustrator 22.0.0, SVG Export Plug-In . SVG Version: 6.00 Build 0)  -->
<svg version="1.1" id="Capa_1" xmlns="http://www.w3.org/2000/svg" xmlns:xlink="http://www.w3.org/1999/xlink" x="0px" y="0px"
	 viewBox="0 0 286.2 281.6" style="enable-background:new 0 0 286.2 281.6;" xml:space="preserve">
<style type="text/css">
	.st0{fill:#E4E4E4;}
	.st1{fill:#394049;}
	.st2{fill:#67CABA;stroke:#67CABA;stroke-width:0.5;stroke-miterlimit:10;}
</style>
<path class="st0" d="M244.4,84c-2.1-5.3,12.4-11.6,17.5-28.7c1.8-6.1,1.8-11.4,1.2-11.5c-0.7-0.2-1.5,10.2-8.4,19.4
	c-6.6,8.7-17.7,14.8-22.5,11.8c-1.8-1.1-2.8-3.5-4-6.5c-0.5-1.1-1.3-3.3-1.9-7.5c-0.5-3.1-0.8-7.6-0.3-13.1
	c-0.7,1.6-1.5,3.1-2.2,4.7c2.5,11.7,1.5,21.2,0.5,26.7c-3.7,20.7-16.9,32.5-21.5,38.3c-9.9,12.8-23.6,15-35.1,7.3
	c-11.5-7.8-21.7-31.8-16-43.6c4.5-9.3,12.9-14.1,14.1-14.7c3.8-1.9,9.7-4.9,16.4-3.7c2.9,0.6,6.4,2,10.3,0.5
	c1.7-0.7,2.9-1.7,3.7-2.4c-13.6,0.4-24.1-1.5-25-5.6c-0.9-4.3,8.9-11.3,18.4-13.7c10.6-2.7,19.5,0.7,19.7-0.3
	c0.2-0.8-5.9-3.6-12.8-3.7c-4.7-0.1-8.5,1-10.9,1.9c-4.6,1.4-9.2,2.7-13.7,4.1c-1.5,0.9-5.1,2.7-9.4,2c-1.2-0.2-2.8-0.5-4.3-1.7
	c-2.4-2.1-2.7-5.3-2.9-8.5c-0.3-5,0.7-9,1.3-11c1.8-6,4.9-10.6,7.8-13.9c-2.5,0.9-8.3,3.4-12.8,9.4c-6.4,8.5-5.6,17.8-5.3,20
	c0.8,2,4.3,10.5,3.1,16.8c-0.4,2.2-1.1,3-2,7.4c-0.4,2.1-0.5,3.2-1.4,3.8c-1.5,1.1-4.2,0.3-5.9-1.1c-0.9-0.7-1.9-2.1-2.5-6
	c-0.4-2.5-0.6-6.7,0.7-11.9c0.5-7.3-0.1-13.3-0.8-17.8c-1-6.3-2.2-7.9-2.7-13.5c-1-10.1,1.3-17.3,1.2-17.4c-0.2,0-4.3,12.2-3.2,23.4
	c0,0.2,0.4,3.5,0.1,7.9c-0.3,4.1-0.6,8.3-2.2,8.7c-1.8,0.5-4-3.8-7.9-9c0,0-7.2-9.7-16.1-16.5c-9.4-7.2-19.1-9.6-19.4-9.1
	c-0.3,0.6,13.1,4.7,24.2,16.9c7.9,8.8,14.9,21.9,11.8,25c-3,3-16.4-2.6-23.2-12.6c-6.2-9.1-5.2-19.1-5.6-19
	c-0.5,0.1-3,14.5,5.3,24.6c5.1,6.3,13.3,9.6,15.3,10.4c6.1,2.5,9.9,2.3,13.5,6c3,3,4.2,6.8,4.7,9.7c0.3,1.2,0.7,2.4,1,3.7
	c-1.2-0.1-2.5-0.1-3.7-0.2c-3.7-0.6-9.1-1.8-15.2-4.5c-8.5-3.8-10.1-6.8-16.2-9.7c-13.7-6.5-28.4-2.3-28.4-1.9
	c0,0.3,8.9-1.2,19.5,2.7c7.2,2.6,12.6,6.6,16.1,9.9c-17.3,1.1-21,1.5-21,1.7c0,0.4,10.5-0.8,22.9,2c8.3,1.9,14.8,5,19.1,7.4
	c2.6,1.4,11,6.4,14.2,16.3c1.8,5.6,1.4,12-1.1,19.2c-5.7,15.9-15.9,28.7-32,35.3c-6.3,2.6-23.6,10.6-40.5,4.6
	c-4-1.4-7.8-2.8-10.9-6.5c-3.9-4.8-2.3-8.4-7.2-13.1c-3.6-3.5-8-4.9-8.4-5c-1.5-0.5-2.7-0.6-3.2-0.7c-3.1-0.5-7.5-3.8-12.8-15.5
	c2.5,12.6,6,16.1,8.9,16.9c1.1,0.3,2.4,0.3,4.5,1.2c3.9,1.7,6.2,4.5,6.9,5.3c1.9,2.5,1.4,3.3,4.1,10.6c2,5.4,2.9,6.6,2.2,7.5
	c-1.2,1.5-5-1-11.9-1.9c-7.3-1-7.5,1.2-13.7,0.3c-7.3-1.1-8.1-4.2-15.9-5.3C4.9,145.9,0,146.8,0,147.3c0,0.6,7.8-0.1,17.3,3.8
	c6.2,2.5,5.4,3.8,9.5,4.7c7.2,1.4,11.2-2.2,17.5,0.3c2.4,0.9,4,2.3,5.1,3.4c-2,2.6-5.1,5.8-9.4,8.2c-14.3,7.8-30,0.4-32.1-0.6
	c7.6,4.7,18.4,9.6,29.7,6.9c4.9-1.2,5.2-2.7,12.6-5.4c6-2.2,17.8-6.4,32-3.7c7.3,1.4,14.5,4.5,21.4,9.6c7.5,5.4,11.4,9.9,11.8,14.7
	c0.4,5.4-3.7,10.1-8.6,15.9c-0.7,0.9-2.2,2.5-7,7.1c-10.1,9.4-16.6,15.5-24.4,19.8c-1.2,0.7-4.1,2.2-7.8,4.7
	c-2.4,1.6-3.7,2.6-6.6,4.7c-5.3,3.9-7.9,5.8-9.7,6.9c-9.8,6-20.6,3.8-20.6,4.7c0,0.8,7.4,3.5,15,1.2c4-1.2,7.5-3.6,12.5-3.1
	c1.2,0.1,2.7,0.4,3.7,1.6c1.2,1.3,1.1,3.2,0.9,4.7c-0.6,6.9-2.3,9.6-2.4,14.7c-0.1,3.4,0.4,6.5,0.9,6.6c0.7,0,0-7.2,4.2-14.5
	c0.1-0.2,0,0,5.7-7.5c3.1-4,3.9-5.1,5.2-5.2c2.4-0.1,5.3,2.9,5.8,6c0.6,3.7-2.6,5-2.6,10.2c0,2.7,0.8,5.4,1.4,5.4
	c0.5,0,0.6-1.9,1.2-4.4c1.3-5.6,2.9-7.1,3.4-9.7c0.5-2.7-0.2-6.8-5.9-12.8c6-5.8,10.7-10.5,13.7-13.4c1-1,14.2-14.1,28.1-25
	c1.9-1.5,5.5-4.3,11-5.6c1.8-0.4,5.9-1.4,10.1-0.3c8.3,2.1,12.6,11.2,15.5,18.6c3.8,9.7,5.7,19,1.9,29.4c-2.5,6.9-5.3,14.4-2.1,22.2
	c3.7,6.9,6.2,10.2,7.4,9.8c0.7-0.2,1-1.8,0.8-4.6c-0.1-2.4,0-6.7,2-11.3c1.2-2.9,2.5-5.8,5.2-7.1c3.6-1.7,8.5-0.3,12.6,3.1
	c0.2-0.9,0.5-2.2,0.3-3.7c-0.1-0.6-0.4-3.3-2.7-6.3c-2.8-3.6-6-3.2-7.8-5.7c-3.3-4.4-3.7-10.3-3.4-16.8c0.5-9.3,4.3-17.8,10.3-24.9
	c-0.2-2.3-0.3-4.5-0.3-6.9c0-22.9,9.5-42.3,25.2-55.3c4-16.8,17.4-34.3,31.7-37.1c0.5-0.1,0.9-0.4,1.3-0.7
	c4.6-2.7,11.1-5.6,19.3-6.4c15-1.4,26.2,5.4,26.6,4.4c0.4-1.1-11.7-10.2-29-14.1C249.3,86.1,245.4,86.6,244.4,84z M159,51.4
	c0.9-1,1.9-2.4,3-2.6c0.9-0.2,2.9,0.7,1.5,2.6c-0.7,1.9-1.8,3.6-4,3C157.7,54,157.9,52.5,159,51.4z M151.2,170.2
	c0,0-24.5,3.8-9.8-15.4c14.7-19.2,19.7,2.7,19.7,2.7C160.3,169.2,151.2,170.2,151.2,170.2z"/>
<title>Recurso 29</title>
<path class="st1" d="M-41,177.9c0,0-0.1,0-0.1,0c0,0.1,0,0.1-0.1,0.2L-41,177.9z"/>
<g>
	<path class="st1" d="M129.5,162.2c0-10.5,8.1-18.2,19.3-18.2c11.1,0,19.2,7.7,19.2,18.2c0,10.5-8.2,18.2-19.2,18.2
		C137.7,180.4,129.5,172.7,129.5,162.2z M159.8,162.2c0-6.7-4.7-11.3-11-11.3c-6.3,0-11,4.6-11,11.3c0,6.7,4.7,11.3,11,11.3
		C155.1,173.5,159.8,168.9,159.8,162.2z"/>
	<path class="st1" d="M197.9,161.7h7.4v14.3c-3.9,2.9-9.2,4.5-14.2,4.5c-11.1,0-19.2-7.6-19.2-18.2c0-10.6,8.1-18.2,19.4-18.2
		c6.2,0,11.3,2.1,14.7,6.1l-5.2,4.8c-2.6-2.7-5.5-4-9.1-4c-6.8,0-11.5,4.6-11.5,11.3c0,6.6,4.7,11.3,11.4,11.3
		c2.2,0,4.3-0.4,6.3-1.5V161.7z"/>
	<path class="st1" d="M245.2,144.6v35.2h-6.7L221,158.5v21.4h-8v-35.2h6.7l17.5,21.4v-21.4H245.2z"/>
	<path class="st1" d="M253.5,144.6h8.1v35.2h-8.1V144.6z"/>
	<path class="st1" d="M93.1,162c0-10.6,8.1-18.2,19.1-18.2c6.1,0,11.2,2.2,14.5,6.2l-5.2,4.8c-2.4-2.7-5.3-4.1-8.8-4.1
		c-6.6,0-11.3,4.6-11.3,11.3c0,6.6,4.7,11.3,11.3,11.3c3.5,0,6.5-1.4,8.8-4.2l5.2,4.8c-3.3,4.1-8.4,6.3-14.5,6.3
		C101.2,180.2,93.1,172.6,93.1,162z"/>
	<g>
		<path class="st2" d="M230.5,181.7c0.7,0.5,1.3,1.1,1.7,1.9c0.4,0.8,0.6,1.6,0.6,2.6c0,0.9-0.2,1.8-0.6,2.6s-1,1.4-1.7,1.9
			c-0.7,0.5-1.4,0.7-2.2,0.7h-4v4.3c0,0.4-0.1,0.7-0.4,1c-0.2,0.3-0.6,0.4-1,0.4c-0.4,0-0.7-0.1-0.9-0.4c-0.2-0.3-0.4-0.6-0.4-1
			v-13.2c0-0.4,0.1-0.7,0.4-1c0.3-0.3,0.6-0.4,1-0.4h5.2C229.1,181,229.8,181.3,230.5,181.7z M229.2,188.3c0.3-0.2,0.5-0.6,0.7-0.9
			c0.2-0.4,0.3-0.8,0.3-1.2c0-0.4-0.1-0.8-0.3-1.2c-0.2-0.4-0.4-0.7-0.7-0.9c-0.3-0.2-0.6-0.4-0.9-0.4h-4v5h4
			C228.6,188.7,228.9,188.6,229.2,188.3z"/>
		<path class="st2" d="M237.8,196.6c-0.3,0.3-0.6,0.4-1,0.4c-0.4,0-0.7-0.1-1-0.4c-0.3-0.3-0.4-0.6-0.4-1v-14.1c0-0.4,0.1-0.7,0.4-1
			c0.3-0.3,0.6-0.4,1-0.4c0.4,0,0.7,0.1,1,0.4c0.3,0.3,0.4,0.6,0.4,1v14.1C238.2,196,238.1,196.3,237.8,196.6z"/>
		<path class="st2" d="M251.3,185.2c0.3,0.3,0.4,0.6,0.4,1v5.8c0,1.6-0.5,2.9-1.4,3.8c-0.9,0.9-2.2,1.4-3.9,1.4
			c-1.7,0-3-0.5-3.8-1.4c-0.9-0.9-1.3-2.2-1.3-3.8v-5.8c0-0.4,0.1-0.7,0.4-1c0.3-0.3,0.6-0.4,1-0.4s0.7,0.1,1,0.4
			c0.3,0.3,0.4,0.6,0.4,1v5.8c0,0.9,0.2,1.6,0.6,2.1c0.4,0.4,1,0.7,1.8,0.7c0.8,0,1.5-0.2,1.9-0.7c0.4-0.4,0.6-1.1,0.6-2.1v-5.8
			c0-0.4,0.1-0.7,0.4-1c0.3-0.3,0.6-0.4,1-0.4S251,184.9,251.3,185.2z"/>
		<path class="st2" d="M253.7,194.4c0-0.4,0.2-0.7,0.6-1c0.2-0.1,0.4-0.2,0.7-0.2c0.3,0,0.6,0.1,0.9,0.4c0.5,0.5,0.9,0.8,1.4,1
			c0.5,0.2,1.1,0.3,1.8,0.3c1.2,0,1.8-0.5,1.8-1.3c0-0.4-0.2-0.8-0.6-1c-0.4-0.2-1-0.5-1.9-0.7c-0.9-0.2-1.6-0.5-2.2-0.7
			c-0.6-0.2-1-0.6-1.4-1.1c-0.4-0.5-0.6-1.2-0.6-2c0-0.7,0.2-1.4,0.6-1.9c0.4-0.5,1-1,1.6-1.3c0.7-0.3,1.4-0.4,2.2-0.4
			c0.8,0,1.5,0.1,2.3,0.4c0.8,0.3,1.4,0.7,1.8,1.3c0.2,0.2,0.3,0.5,0.3,0.8c0,0.3-0.1,0.6-0.4,0.9c-0.2,0.2-0.5,0.3-0.7,0.3
			c-0.3,0-0.6-0.1-0.8-0.3c-0.3-0.3-0.6-0.6-1.1-0.8c-0.4-0.2-0.9-0.3-1.5-0.3c-1.2,0-1.7,0.4-1.7,1.3c0,0.3,0.1,0.6,0.3,0.8
			c0.2,0.2,0.5,0.4,0.8,0.5c0.3,0.1,0.8,0.3,1.4,0.4c0.8,0.2,1.5,0.5,2,0.7c0.5,0.2,1,0.6,1.4,1.1c0.4,0.5,0.6,1.2,0.6,2
			c0,0.7-0.2,1.4-0.7,1.9c-0.4,0.6-1,1-1.7,1.3c-0.7,0.3-1.4,0.4-2.1,0.4c-1,0-1.9-0.2-2.8-0.5c-0.9-0.3-1.6-0.9-2.1-1.6
			C253.8,194.9,253.7,194.7,253.7,194.4z"/>
	</g>
</g>
</svg>
